# xmcd
#
# Track frame offsets:
#	150
#	16475
#	31847
#	44272
#	59935
#	78440
#	93180
#	110162
#	128740
#	145425
#
# Disc length: 2164
#
# Revision: 3
# Processed by: cddbd v1.5.1PL0 Copyright (c) Steve Scherf et al.
# Submitted via: CDex 1.50beta10
# Normalized: r2:TDELIM( - )
#
DISCID=8a08720a
DTITLE=Various Artist - Super Hits Of 1995
DYEAR=1995
DGENRE=Country
TTITLE0=Joe Diffie - Pickup Man
TTITLE1=Doug Stone - Faith In You Faith In Me
TTITLE2=Wade Hayes - Don't Stop
TTITLE3=James House - This Is Me Missing You
TTITLE4=Patty Loveless - You Don't Even Know Who I Am
TTITLE5=Rick Trevino - Bobbie Ann Mason
TTITLE6=Mary Chapin Carpenter - House Of Cards
TTITLE7=Collin Raye - If I Were You
TTITLE8=Ty Herndon - What Mattered Most
TTITLE9=Patty Loveless - Halfway Down
EXTD=YEAR: 1995
EXTT0=
EXTT1=
EXTT2=
EXTT3=
EXTT4=
EXTT5=
EXTT6=
EXTT7=
EXTT8=
EXTT9=
PLAYORDER=
